<svg xmlns="http://www.w3.org/2000/svg" width="14.767" height="14.767" viewBox="0 0 14.767 14.767">
  <g id="noun_Info_2940582" transform="translate(-1.834 -5.912)">
    <g id="Group_550" data-name="Group 550">
      <path id="Path_101" data-name="Path 101" d="M18.982,5H5.785A.785.785,0,0,0,5,5.785V19.5a.271.271,0,0,0,.462.193l2.68-2.655h10.84a.785.785,0,0,0,.785-.785V5.785A.785.785,0,0,0,18.982,5Z" transform="translate(-3.166 0.912)" fill="#008a51"/>
      <path id="Path_102" data-name="Path 102" d="M333.373,70.576h1.616V65.52h-1.616Zm.808,3.577a.961.961,0,1,0-.961-.961A.961.961,0,0,0,334.182,74.153Z" transform="translate(-324.759 -57.52)" fill="#fff" fill-rule="evenodd"/>
    </g>
  </g>
</svg>
