<?xml version="1.0" encoding="UTF-8"?>
<svg width="20px" height="21px" viewBox="0 0 20 21" version="1.1" xmlns="http://www.w3.org/2000/svg" xmlns:xlink="http://www.w3.org/1999/xlink">
    <!-- Generator: Sketch 60.1 (88133) - https://sketch.com -->
    <title>Combined Shape</title>
    <desc>Created with Sketch.</desc>
    <g id="Page-1" stroke="none" stroke-width="1" fill="none" fill-rule="evenodd">
        <path d="M9.91909091,0.909090455 C15.3951762,0.914102434 19.8331698,5.3520961 19.8381818,10.8281814 C19.8331698,16.3042666 15.3951762,20.7422603 9.91909091,20.7472723 C4.44300564,20.7422603 0.00501197941,16.3042666 0,10.8281814 C0.00501197941,5.3520961 4.44300564,0.914102434 9.91909091,0.909090455 Z M9.91909091,2.53818136 C5.34231231,2.54219125 1.63310079,6.25140276 1.62909091,10.8281814 C1.63310079,15.40496 5.34231231,19.1141715 9.91909091,19.1181814 C14.4958695,19.1141715 18.205081,15.40496 18.2090909,10.8281814 C18.205081,6.25140276 14.4958695,2.54219125 9.91909091,2.53818136 Z M14.2363636,8.18545455 C14.7715778,8.18545455 15.2054545,8.61933132 15.2054545,9.15454545 C15.2054545,9.68975958 14.7715778,10.1236364 14.2363636,10.1236364 C14.1561456,10.1296367 14.0755697,10.1184801 14,10.0909091 L12.2663636,11.8181818 C12.2951545,11.8956668 12.3066353,11.9785148 12.3,12.0609091 C12.3,12.4072943 12.1152057,12.7273675 11.8152273,12.9005601 C11.5152489,13.0737527 11.1456602,13.0737527 10.8456818,12.9005601 C10.5457034,12.7273675 10.3609091,12.4072943 10.3609091,12.0609091 L10.3954545,11.8181818 L9.15,10.5727273 C8.99026566,10.6066465 8.82518888,10.6066465 8.66545455,10.5727273 L6.45454545,12.7863636 L6.48818182,13.0290909 C6.48818182,13.564305 6.05430504,13.9981818 5.51909091,13.9981818 C4.98387678,13.9981818 4.55,13.564305 4.55,13.0290909 C4.55,12.5321064 4.92410804,12.1224994 5.40607444,12.0665198 L5.516,12.0590905 L5.75727273,12.0927273 L7.97181818,9.87818182 C7.88144567,9.54685691 7.97784485,9.19258122 8.22363636,8.95272727 C8.40342245,8.76994399 8.64907053,8.66700167 8.90545455,8.66700167 C9.16183856,8.66700167 9.40748664,8.76994399 9.58727273,8.95272727 C9.83306424,9.19258122 9.92946342,9.54685691 9.83909091,9.87818182 L11.0909091,11.1236364 L11.3309091,11.0909091 C11.4133033,11.0842738 11.4961514,11.0957546 11.5736364,11.1245455 L13.3009091,9.39727273 C13.2721182,9.31978772 13.2606374,9.2369397 13.2672727,9.15454545 C13.2672727,8.61933132 13.7011495,8.18545455 14.2363636,8.18545455 Z" id="Combined-Shape" fill="#FFFFFF" fill-rule="nonzero"></path>
    </g>
</svg>0.6066465 8.66545455,10.5727273 L6.45454545,12.7863636 L6.48818182,13.0290909 C6.48818182,13.564305 6.05430504,13.9981818 5.51909091,13.9981818 C4.98387678,13.9981818 4.55,13.564305 4.55,13.0290909 C4.55,12.4938768 4.98387678,12.06 5.51909091,12.06 L5.51454545,12.0590909 Z" id="chart-timeline-variant" stroke="#000000" stroke-width="0.3"></path>
        </g>
    </g>
</svg>