<svg xmlns="http://www.w3.org/2000/svg" width="20.941" height="8.363" viewBox="0 0 20.941 8.363">
  <g id="Group_549" data-name="Group 549" transform="translate(9246.391 -2169.137)">
    <g id="Group_548" data-name="Group 548" transform="translate(-9245.5 2160)">
      <path id="Path_99" data-name="Path 99" d="M40.022,56.3a1.121,1.121,0,0,0-.529-.727,1,1,0,0,0-.9-.044l-4.3,1.741a1.523,1.523,0,0,1-.088.705,1.81,1.81,0,0,1-2.072,1.212l-3.593-.749a.54.54,0,0,1,.22-1.058l3.593.749a.691.691,0,0,0,.816-.485.729.729,0,0,0-.353-.86L29.178,54.91a2.916,2.916,0,0,0-2.314-.176L23.8,55.77v5.643l5.951,1.411a4.19,4.19,0,0,0,3.416-.683l6.458-4.761A1.088,1.088,0,0,0,40.022,56.3Z" transform="translate(-19.996 -45.436)" fill="#767676"/>
      <path id="Path_100" data-name="Path 100" d="M5.476,55.2H3.139a.64.64,0,0,0-.639.639v6.546a.64.64,0,0,0,.639.639H5.476a.64.64,0,0,0,.639-.639V55.817A.621.621,0,0,0,5.476,55.2Z" transform="translate(-3.391 -45.925)" fill="#767676"/>
    </g>
  </g>
</svg>
