<svg xmlns="http://www.w3.org/2000/svg" width="13.221" height="15.491" viewBox="0 0 13.221 15.491">
  <path id="Union_5" data-name="Union 5" d="M10049.376,3856.492a1.381,1.381,0,0,1-1.376-1.379v-10.635a1.381,1.381,0,0,1,1.376-1.379h.1v10.716a1.38,1.38,0,0,0,1.376,1.376h7v.225a1.261,1.261,0,0,1-1.379,1.075Zm10.353-2.1h-8.077a1.382,1.382,0,0,1-1.379-1.379v-10.857a1.285,1.285,0,0,1,1.379-1.154h5.146v3.2a1.433,1.433,0,0,0,1.435,1.432h2.989v7.381a1.381,1.381,0,0,1-1.376,1.379Zm-7.191-2.406h6.422v-.8h-6.422Zm0-2.141h6.422v-.8h-6.422Zm0-2.141h6.422v-.8h-6.422Zm5.694-2.871a.634.634,0,0,1-.634-.631v-2.78l3.242,3.411Z" transform="translate(-10048 -3841.001)" fill="#767676"/>
</svg>
