<svg xmlns="http://www.w3.org/2000/svg" width="12.323" height="12.322" viewBox="0 0 12.323 12.322">
  <path id="Icon_awesome-horse-head" data-name="Icon awesome-horse-head" d="M12.274,8.007,10.591,4.051A2.974,2.974,0,0,0,8.352,2.144,1.683,1.683,0,0,0,9.175.163.224.224,0,0,0,8.886.016L4.018,1.838C.864,2.972,0,5.753,0,9.6v1.955a.77.77,0,0,0,.77.77H6.457a.769.769,0,0,0,.689-1.115L6.163,9.246V9.23A3.077,3.077,0,0,1,3.652,7.554a.191.191,0,0,1,.039-.224l.291-.291a.192.192,0,0,1,.311.058A2.3,2.3,0,0,0,6.4,8.478,2.215,2.215,0,0,0,7.527,8.16l1.1,1.54a.768.768,0,0,0,.626.32h1.211a.769.769,0,0,0,.544-.226L12.1,8.835a.781.781,0,0,0,.171-.828ZM7.9,5.394a.576.576,0,1,1,.409-.169.578.578,0,0,1-.409.169Z" transform="translate(0 -0.003)" fill="#767676"/>
</svg>
