<svg xmlns="http://www.w3.org/2000/svg" width="19.05" height="15.24" viewBox="0 0 19.05 15.24">
  <path id="Icon_awesome-car-crash" data-name="Icon awesome-car-crash" d="M4.264,6.572l-.37,1.38a2.807,2.807,0,0,0-.072,1.024l-1.048.863a.269.269,0,0,1-.435-.261L2.8,7.295a.269.269,0,0,0-.238-.321L.243,6.749A.269.269,0,0,1,.12,6.257L2.059,4.968a.27.27,0,0,0,.059-.4l-1.48-1.8A.269.269,0,0,1,.9,2.339l2.282.46A.269.269,0,0,0,3.5,2.561L3.728.243A.269.269,0,0,1,4.221.12L5.51,2.059a.27.27,0,0,0,.4.059L7.7.638A.269.269,0,0,1,8.138.9L7.8,2.571c-.081.091-.162.181-.235.28L6.609,4.129l-.319.426A2.871,2.871,0,0,0,4.264,6.572Zm14.721,3.944-.37,1.38a1.865,1.865,0,0,1-.522.874,1.991,1.991,0,0,1-.261.208l-.416,1.555a.952.952,0,0,1-1.166.674l-.92-.246a.953.953,0,0,1-.674-1.166l.246-.92L7.541,10.9l-.246.92a.953.953,0,0,1-1.166.674l-.92-.246a.952.952,0,0,1-.674-1.166l.416-1.555a1.983,1.983,0,0,1-.122-.311A1.865,1.865,0,0,1,4.814,8.2l.37-1.38a1.891,1.891,0,0,1,1.1-1.256,1.915,1.915,0,0,1,.55-.14l.54-.721.957-1.279a3.352,3.352,0,0,1,1.129-.963,3.268,3.268,0,0,1,.448-.193,3.3,3.3,0,0,1,.96-.18,3.361,3.361,0,0,1,1,.113l3.652.978a3.355,3.355,0,0,1,.918.4A3.316,3.316,0,0,1,17.959,6l.189,1.586.107.894a1.92,1.92,0,0,1,.677.891,1.88,1.88,0,0,1,.052,1.143ZM7.607,6.975a.9.9,0,0,0-1.166.671.9.9,0,0,0,.674,1.164c.552.148,1.355.462,1.5-.089A1.832,1.832,0,0,0,7.607,6.975Zm8.65.838-.189-1.586a1.428,1.428,0,0,0-1.049-1.211l-3.652-.978a1.429,1.429,0,0,0-1.514.524L8.9,5.841l5.12,1.372,2.241.6Zm.55,1.627a1.832,1.832,0,0,0-1.749,1.006c-.147.55.705.68,1.257.828a.949.949,0,1,0,.491-1.834Z" transform="translate(0 0.001)" fill="#767676"/>
</svg>
