<svg xmlns="http://www.w3.org/2000/svg" width="16.188" height="14.139" viewBox="0 0 16.188 14.139">
  <g id="noun_Submarine_958418" transform="translate(-854 -1178)">
    <g id="Group_312" data-name="Group 312" transform="translate(854 1178)">
      <g id="Group_311" data-name="Group 311" transform="translate(0 0)">
        <path id="Path_58" data-name="Path 58" d="M1278.479,3672h8.886a3.528,3.528,0,0,1,2.464,1,3.328,3.328,0,0,1,1.025,2.394v.458a2.364,2.364,0,0,1-.727,1.7,2.5,2.5,0,0,1-1.749.705h-9.9a2.5,2.5,0,0,1-1.749-.705,2.364,2.364,0,0,1-.727-1.7v-1.442a2.363,2.363,0,0,1,.727-1.7,2.5,2.5,0,0,1,1.749-.705Zm3.441,2.264a.243.243,0,0,0,.047-.351.263.263,0,0,0-.36-.047l-2.852,2.119a.243.243,0,0,0-.047.351.263.263,0,0,0,.36.047Zm3.093,0a.243.243,0,0,0,.047-.351.263.263,0,0,0-.36-.047l-2.853,2.119a.243.243,0,0,0-.047.351.263.263,0,0,0,.36.047Zm3.093,0a.243.243,0,0,0,.047-.351.263.263,0,0,0-.361-.047l-2.852,2.119a.243.243,0,0,0-.047.351.263.263,0,0,0,.36.047Z" transform="translate(-1274.665 -3664.113)" fill="#767676"/>
        <path id="Path_59" data-name="Path 59" d="M3255.26,3041h5.287a.257.257,0,0,1,.26.25v1.559a3.946,3.946,0,0,0-.7-.063H3255v-1.5A.255.255,0,0,1,3255.26,3041Z" transform="translate(-3247.408 -3035.108)" fill="#767676"/>
        <path id="Path_60" data-name="Path 60" d="M854.765,3975.572h.323v.753h-.323v1.192a.383.383,0,0,1-.765,0v-3.14a.383.383,0,0,1,.765,0v1.2Z" transform="translate(-854 -3965.158)" fill="#767676" fill-rule="evenodd"/>
        <path id="Path_61" data-name="Path 61" d="M3731.913,1178h1.56a.256.256,0,0,1,.259.25v1.591a.254.254,0,0,1-.259.25h-.708v3.548H3730v-4.763a.859.859,0,0,1,.266-.62.915.915,0,0,1,.639-.256Z" transform="translate(-3720.905 -1178)" fill="#767676"/>
      </g>
    </g>
  </g>
</svg>
